<svg xmlns="http://www.w3.org/2000/svg" viewBox="0 0 155.46 144"><defs><style>.cls-1{fill:#231f20;}.cls-2{fill:#fff;}</style></defs><title>linkedin</title><g id="Layer_2" data-name="Layer 2"><g id="Layer_1-2" data-name="Layer 1"><path class="cls-1" d="M133.34,0H10.63A10.51,10.51,0,0,0,0,10.38V133.61A10.52,10.52,0,0,0,10.63,144H133.34A10.54,10.54,0,0,0,144,133.61V10.38A10.53,10.53,0,0,0,133.34,0Z"/><path class="cls-2" d="M21.35,54H42.71v68.72H21.35ZM32,19.83A12.38,12.38,0,1,1,19.65,32.21,12.39,12.39,0,0,1,32,19.83"/><path class="cls-2" d="M56.11,54H76.59v9.39h.29c2.85-5.4,9.82-11.1,20.21-11.1,21.63,0,25.62,14.23,25.62,32.74v37.69H101.36V89.29c0-8-.15-18.22-11.1-18.22-11.11,0-12.82,8.68-12.82,17.64v34H56.11Z"/><polygon class="cls-1" points="147.52 119.09 148.68 119.09 148.68 122.71 149.31 122.71 149.31 119.09 150.47 119.09 150.47 118.46 147.52 118.46 147.52 119.09"/><polygon class="cls-1" points="154.56 118.46 153.33 121.58 152.09 118.46 151.19 118.46 151.19 122.71 151.82 122.71 151.82 119.48 153.12 122.71 153.54 122.71 154.84 119.48 154.84 122.71 155.46 122.71 155.46 118.46 154.56 118.46"/></g></g></svg>